<svg width="82" height="13" viewBox="0 0 82 13" fill="none" xmlns="http://www.w3.org/2000/svg">
<path d="M6.352 12.16C5.552 12.16 4.81067 12.016 4.128 11.728C3.44533 11.4293 2.848 11.0187 2.336 10.496C1.83467 9.97333 1.44533 9.36533 1.168 8.672C0.890667 7.97867 0.752 7.23733 0.752 6.448C0.752 5.648 0.890667 4.90133 1.168 4.208C1.44533 3.51467 1.83467 2.912 2.336 2.4C2.848 1.87733 3.44 1.472 4.112 1.184C4.79467 0.885332 5.536 0.735999 6.336 0.735999C7.21067 0.735999 7.97867 0.885332 8.64 1.184C9.30133 1.48267 9.888 1.888 10.4 2.4L9.36 3.44C9.008 3.04533 8.576 2.736 8.064 2.512C7.56267 2.288 6.98667 2.176 6.336 2.176C5.74933 2.176 5.21067 2.28267 4.72 2.496C4.22933 2.69867 3.80267 2.992 3.44 3.376C3.07733 3.76 2.79467 4.21333 2.592 4.736C2.4 5.25867 2.304 5.82933 2.304 6.448C2.304 7.06667 2.4 7.63733 2.592 8.16C2.79467 8.68267 3.07733 9.136 3.44 9.52C3.80267 9.904 4.22933 10.2027 4.72 10.416C5.21067 10.6187 5.74933 10.72 6.336 10.72C7.02933 10.72 7.632 10.608 8.144 10.384C8.656 10.1493 9.088 9.83467 9.44 9.44L10.48 10.464C9.968 10.9973 9.36533 11.4133 8.672 11.712C7.98933 12.0107 7.216 12.16 6.352 12.16ZM12.0716 12V4.4H13.5116V12H12.0716ZM13.5116 7.664L12.9676 7.424C12.9676 6.45333 13.1916 5.68 13.6396 5.104C14.0876 4.528 14.733 4.24 15.5756 4.24C15.9596 4.24 16.3063 4.30933 16.6156 4.448C16.925 4.576 17.213 4.79467 17.4796 5.104L16.5356 6.08C16.3756 5.90933 16.1996 5.78667 16.0076 5.712C15.8156 5.63733 15.5916 5.6 15.3356 5.6C14.8023 5.6 14.365 5.77067 14.0236 6.112C13.6823 6.45333 13.5116 6.97067 13.5116 7.664ZM21.7635 12.16C21.0062 12.16 20.3235 11.9893 19.7155 11.648C19.1075 11.296 18.6275 10.8213 18.2755 10.224C17.9235 9.62667 17.7475 8.94933 17.7475 8.192C17.7475 7.44533 17.9182 6.77333 18.2595 6.176C18.6115 5.57867 19.0808 5.10933 19.6675 4.768C20.2648 4.416 20.9315 4.24 21.6675 4.24C22.3715 4.24 22.9902 4.4 23.5235 4.72C24.0675 5.04 24.4888 5.48267 24.7875 6.048C25.0968 6.61333 25.2515 7.25333 25.2515 7.968C25.2515 8.07467 25.2462 8.192 25.2355 8.32C25.2248 8.43733 25.2035 8.576 25.1715 8.736H18.7555V7.536H24.4035L23.8755 8C23.8755 7.488 23.7848 7.056 23.6035 6.704C23.4222 6.34133 23.1662 6.064 22.8355 5.872C22.5048 5.66933 22.1048 5.568 21.6355 5.568C21.1448 5.568 20.7128 5.67467 20.3395 5.888C19.9662 6.10133 19.6782 6.4 19.4755 6.784C19.2728 7.168 19.1715 7.62133 19.1715 8.144C19.1715 8.67733 19.2782 9.14667 19.4915 9.552C19.7048 9.94667 20.0088 10.256 20.4035 10.48C20.7982 10.6933 21.2515 10.8 21.7635 10.8C22.1902 10.8 22.5795 10.7253 22.9315 10.576C23.2942 10.4267 23.6035 10.2027 23.8595 9.904L24.7875 10.848C24.4248 11.2747 23.9768 11.6 23.4435 11.824C22.9208 12.048 22.3608 12.16 21.7635 12.16ZM30.0536 12.16C29.3603 12.16 28.731 11.9893 28.1656 11.648C27.6003 11.296 27.1523 10.8213 26.8216 10.224C26.5016 9.62667 26.3416 8.95467 26.3416 8.208C26.3416 7.46133 26.5016 6.78933 26.8216 6.192C27.1523 5.59467 27.595 5.12 28.1496 4.768C28.715 4.416 29.3496 4.24 30.0536 4.24C30.6296 4.24 31.1416 4.36267 31.5896 4.608C32.0483 4.84267 32.4163 5.17333 32.6936 5.6C32.971 6.016 33.1256 6.50133 33.1576 7.056V9.344C33.1256 9.888 32.971 10.3733 32.6936 10.8C32.427 11.2267 32.0643 11.5627 31.6056 11.808C31.1576 12.0427 30.6403 12.16 30.0536 12.16ZM30.2936 10.8C31.0083 10.8 31.5843 10.56 32.0216 10.08C32.459 9.58933 32.6776 8.96533 32.6776 8.208C32.6776 7.68533 32.5763 7.232 32.3736 6.848C32.1816 6.45333 31.9043 6.14933 31.5416 5.936C31.179 5.712 30.7576 5.6 30.2776 5.6C29.7976 5.6 29.371 5.712 28.9976 5.936C28.635 6.16 28.347 6.46933 28.1336 6.864C27.931 7.248 27.8296 7.69067 27.8296 8.192C27.8296 8.704 27.931 9.15733 28.1336 9.552C28.347 9.936 28.6403 10.24 29.0136 10.464C29.387 10.688 29.8136 10.8 30.2936 10.8ZM32.5816 12V9.952L32.8536 8.096L32.5816 6.256V4.4H34.0376V12H32.5816ZM37.2709 12V1.216H38.7109V12H37.2709ZM35.3989 5.712V4.4H40.5829V5.712H35.3989ZM42.0095 12V4.4H43.4495V12H42.0095ZM42.7295 2.88C42.4628 2.88 42.2442 2.79467 42.0735 2.624C41.9028 2.44267 41.8175 2.21867 41.8175 1.952C41.8175 1.696 41.9028 1.48267 42.0735 1.312C42.2442 1.13067 42.4628 1.04 42.7295 1.04C42.9962 1.04 43.2148 1.13067 43.3855 1.312C43.5562 1.48267 43.6415 1.696 43.6415 1.952C43.6415 2.21867 43.5562 2.44267 43.3855 2.624C43.2148 2.79467 42.9962 2.88 42.7295 2.88ZM49.0436 12.16C48.297 12.16 47.625 11.984 47.0276 11.632C46.4303 11.28 45.9556 10.8053 45.6036 10.208C45.2516 9.6 45.0756 8.92267 45.0756 8.176C45.0756 7.44 45.2516 6.77867 45.6036 6.192C45.9556 5.59467 46.4303 5.12 47.0276 4.768C47.625 4.416 48.297 4.24 49.0436 4.24C49.7796 4.24 50.4463 4.416 51.0436 4.768C51.6516 5.10933 52.1316 5.57867 52.4836 6.176C52.8356 6.77333 53.0116 7.44 53.0116 8.176C53.0116 8.92267 52.8356 9.6 52.4836 10.208C52.1316 10.8053 51.6516 11.28 51.0436 11.632C50.4463 11.984 49.7796 12.16 49.0436 12.16ZM49.0436 10.768C49.5236 10.768 49.9503 10.656 50.3236 10.432C50.697 10.208 50.9903 9.904 51.2036 9.52C51.417 9.12533 51.5236 8.67733 51.5236 8.176C51.5236 7.68533 51.4116 7.248 51.1876 6.864C50.9743 6.48 50.681 6.18133 50.3076 5.968C49.945 5.744 49.5236 5.632 49.0436 5.632C48.5636 5.632 48.137 5.744 47.7636 5.968C47.3903 6.18133 47.097 6.48 46.8836 6.864C46.6703 7.248 46.5636 7.68533 46.5636 8.176C46.5636 8.67733 46.6703 9.12533 46.8836 9.52C47.097 9.904 47.3903 10.208 47.7636 10.432C48.137 10.656 48.5636 10.768 49.0436 10.768ZM60.0101 12V7.568C60.0101 6.992 59.8288 6.51733 59.4661 6.144C59.1035 5.77067 58.6341 5.584 58.0581 5.584C57.6741 5.584 57.3328 5.66933 57.0341 5.84C56.7355 6.01067 56.5008 6.24533 56.3301 6.544C56.1595 6.84267 56.0741 7.184 56.0741 7.568L55.4821 7.232C55.4821 6.656 55.6101 6.144 55.8661 5.696C56.1221 5.248 56.4795 4.896 56.9381 4.64C57.3968 4.37333 57.9141 4.24 58.4901 4.24C59.0661 4.24 59.5728 4.384 60.0101 4.672C60.4581 4.96 60.8101 5.33867 61.0661 5.808C61.3221 6.26667 61.4501 6.75733 61.4501 7.28V12H60.0101ZM54.6341 12V4.4H56.0741V12H54.6341ZM70.1999 12.16C69.4532 12.16 68.7812 11.984 68.1839 11.632C67.5865 11.28 67.1119 10.8053 66.7599 10.208C66.4079 9.6 66.2319 8.92267 66.2319 8.176C66.2319 7.44 66.4079 6.77867 66.7599 6.192C67.1119 5.59467 67.5865 5.12 68.1839 4.768C68.7812 4.416 69.4532 4.24 70.1999 4.24C70.9359 4.24 71.6025 4.416 72.1999 4.768C72.8079 5.10933 73.2879 5.57867 73.6399 6.176C73.9919 6.77333 74.1679 7.44 74.1679 8.176C74.1679 8.92267 73.9919 9.6 73.6399 10.208C73.2879 10.8053 72.8079 11.28 72.1999 11.632C71.6025 11.984 70.9359 12.16 70.1999 12.16ZM70.1999 10.768C70.6799 10.768 71.1065 10.656 71.4799 10.432C71.8532 10.208 72.1465 9.904 72.3599 9.52C72.5732 9.12533 72.6799 8.67733 72.6799 8.176C72.6799 7.68533 72.5679 7.248 72.3439 6.864C72.1305 6.48 71.8372 6.18133 71.4639 5.968C71.1012 5.744 70.6799 5.632 70.1999 5.632C69.7199 5.632 69.2932 5.744 68.9199 5.968C68.5465 6.18133 68.2532 6.48 68.0399 6.864C67.8265 7.248 67.7199 7.68533 67.7199 8.176C67.7199 8.67733 67.8265 9.12533 68.0399 9.52C68.2532 9.904 68.5465 10.208 68.9199 10.432C69.2932 10.656 69.7199 10.768 70.1999 10.768ZM76.644 12V3.264C76.644 2.69867 76.7667 2.208 77.012 1.792C77.2573 1.36533 77.5933 1.02933 78.02 0.783999C78.4573 0.538666 78.964 0.415999 79.54 0.415999C79.9773 0.415999 80.356 0.490666 80.676 0.639999C80.996 0.789333 81.2893 1.008 81.556 1.296L80.612 2.224C80.4733 2.07467 80.3187 1.96267 80.148 1.888C79.9773 1.80267 79.7693 1.76 79.524 1.76C79.0653 1.76 78.708 1.89333 78.452 2.16C78.2067 2.42667 78.084 2.79467 78.084 3.264V12H76.644ZM74.772 5.712V4.4H80.5V5.712H74.772Z" fill="#8BACD9"/>
</svg>
