<svg width="301" height="20" viewBox="0 0 301 20" fill="none" xmlns="http://www.w3.org/2000/svg">
<path d="M22.7968 16.16C21.9115 16.16 21.1115 15.92 20.3968 15.44C19.6821 14.96 19.1115 14.2827 18.6848 13.408C18.2688 12.5333 18.0608 11.5147 18.0608 10.352C18.0608 9.18933 18.2688 8.176 18.6848 7.312C19.1008 6.448 19.6608 5.776 20.3648 5.296C21.0795 4.816 21.8741 4.576 22.7488 4.576C23.6448 4.576 24.4448 4.816 25.1488 5.296C25.8635 5.776 26.4288 6.45333 26.8448 7.328C27.2608 8.192 27.4688 9.21067 27.4688 10.384C27.4688 11.5467 27.2608 12.5653 26.8448 13.44C26.4288 14.304 25.8688 14.976 25.1648 15.456C24.4608 15.9253 23.6715 16.16 22.7968 16.16ZM22.7648 14.192C23.2768 14.192 23.7195 14.048 24.0928 13.76C24.4661 13.472 24.7541 13.0453 24.9568 12.48C25.1701 11.9147 25.2768 11.2107 25.2768 10.368C25.2768 9.52533 25.1701 8.82133 24.9568 8.256C24.7541 7.69067 24.4608 7.26933 24.0768 6.992C23.7035 6.704 23.2608 6.56 22.7488 6.56C22.2475 6.56 21.8101 6.704 21.4368 6.992C21.0635 7.26933 20.7701 7.69067 20.5568 8.256C20.3541 8.81067 20.2528 9.50933 20.2528 10.352C20.2528 11.2053 20.3541 11.9147 20.5568 12.48C20.7701 13.0453 21.0635 13.472 21.4368 13.76C21.8101 14.048 22.2528 14.192 22.7648 14.192ZM30.0716 16.16C29.6876 16.16 29.3729 16.032 29.1276 15.776C28.8822 15.52 28.7596 15.2053 28.7596 14.832C28.7596 14.4587 28.8822 14.144 29.1276 13.888C29.3729 13.632 29.6876 13.504 30.0716 13.504C30.4449 13.504 30.7542 13.632 30.9996 13.888C31.2449 14.144 31.3676 14.4587 31.3676 14.832C31.3676 15.2053 31.2449 15.52 30.9996 15.776C30.7542 16.032 30.4449 16.16 30.0716 16.16ZM37.3906 16.16C36.5052 16.16 35.7052 15.92 34.9906 15.44C34.2759 14.96 33.7052 14.2827 33.2786 13.408C32.8626 12.5333 32.6546 11.5147 32.6546 10.352C32.6546 9.18933 32.8626 8.176 33.2786 7.312C33.6946 6.448 34.2546 5.776 34.9586 5.296C35.6732 4.816 36.4679 4.576 37.3426 4.576C38.2386 4.576 39.0386 4.816 39.7426 5.296C40.4572 5.776 41.0226 6.45333 41.4386 7.328C41.8546 8.192 42.0626 9.21067 42.0626 10.384C42.0626 11.5467 41.8546 12.5653 41.4386 13.44C41.0226 14.304 40.4626 14.976 39.7586 15.456C39.0546 15.9253 38.2652 16.16 37.3906 16.16ZM37.3586 14.192C37.8706 14.192 38.3132 14.048 38.6866 13.76C39.0599 13.472 39.3479 13.0453 39.5506 12.48C39.7639 11.9147 39.8706 11.2107 39.8706 10.368C39.8706 9.52533 39.7639 8.82133 39.5506 8.256C39.3479 7.69067 39.0546 7.26933 38.6706 6.992C38.2972 6.704 37.8546 6.56 37.3426 6.56C36.8412 6.56 36.4039 6.704 36.0306 6.992C35.6572 7.26933 35.3639 7.69067 35.1506 8.256C34.9479 8.81067 34.8466 9.50933 34.8466 10.352C34.8466 11.2053 34.9479 11.9147 35.1506 12.48C35.3639 13.0453 35.6572 13.472 36.0306 13.76C36.4039 14.048 36.8466 14.192 37.3586 14.192ZM43.0411 12.032L46.8811 4.752H49.2811L45.3451 12.032H43.0411ZM43.0411 13.312V12.032L43.8411 11.408H51.9051V13.312H43.0411ZM48.3531 16V8.832H50.4971V16H48.3531ZM54.3264 16V4.752H56.4704V16H54.3264ZM52.1184 6.64V4.752H56.3104V6.64H52.1184ZM61.9024 16V4.752H64.0784V16H61.9024ZM63.5024 16V14.08H69.7264V16H63.5024ZM63.5024 11.184V9.328H69.1664V11.184H63.5024ZM63.5024 6.672V4.752H69.6464V6.672H63.5024ZM73.9521 16V4.992H76.1441V16H73.9521ZM70.3681 6.688V4.752H79.7281V6.688H70.3681ZM81.2306 16V4.752H83.4066V16H81.2306ZM88.2866 16V4.752H90.4626V16H88.2866ZM82.6066 11.152V9.232H88.8946V11.152H82.6066Z" fill="#00FFF8"/>
<path fill-rule="evenodd" clip-rule="evenodd" d="M5.5 1L10.9961 10.1687L5.5 13.4312L0 10.1687L5.5 1ZM11 11.2165L5.5 19L0 11.2165L5.5 14.479L11 11.2165Z" fill="#00FFF8"/>
<path d="M230.952 16.16C230.227 16.16 229.565 16.0267 228.968 15.76C228.381 15.4827 227.885 15.0827 227.48 14.56L228.504 13.536C228.749 13.9093 229.085 14.208 229.512 14.432C229.939 14.6453 230.413 14.752 230.936 14.752C231.427 14.752 231.848 14.6613 232.2 14.48C232.563 14.288 232.845 14.0213 233.048 13.68C233.261 13.3387 233.368 12.944 233.368 12.496C233.368 12.0373 233.261 11.6427 233.048 11.312C232.845 10.9707 232.557 10.7093 232.184 10.528C231.811 10.3467 231.368 10.256 230.856 10.256C230.664 10.256 230.472 10.272 230.28 10.304C230.088 10.3253 229.901 10.3627 229.72 10.416L230.36 9.552C230.563 9.456 230.781 9.38133 231.016 9.328C231.251 9.27467 231.485 9.248 231.72 9.248C232.317 9.248 232.851 9.38667 233.32 9.664C233.8 9.94133 234.179 10.3307 234.456 10.832C234.744 11.3333 234.888 11.9147 234.888 12.576C234.888 13.28 234.717 13.904 234.376 14.448C234.045 14.9813 233.587 15.4027 233 15.712C232.413 16.0107 231.731 16.16 230.952 16.16ZM229.72 10.416V9.504L232.968 5.808L234.76 5.792L231.416 9.584L229.72 10.416ZM228.008 6.24V4.896H234.76V5.792L233.448 6.24H228.008ZM243.21 16.16C242.506 16.16 241.876 15.9893 241.322 15.648C240.767 15.296 240.324 14.8213 239.993 14.224C239.674 13.6267 239.514 12.9547 239.514 12.208C239.514 11.4613 239.674 10.7893 239.993 10.192C240.324 9.59467 240.767 9.12 241.322 8.768C241.876 8.416 242.506 8.24 243.21 8.24C243.775 8.24 244.287 8.36267 244.746 8.608C245.204 8.84267 245.572 9.17333 245.85 9.6C246.138 10.016 246.298 10.5013 246.33 11.056V13.344C246.298 13.888 246.143 14.3733 245.866 14.8C245.588 15.2267 245.22 15.5627 244.762 15.808C244.303 16.0427 243.786 16.16 243.21 16.16ZM243.45 14.8C243.93 14.8 244.346 14.688 244.698 14.464C245.06 14.24 245.343 13.936 245.546 13.552C245.748 13.1573 245.85 12.7093 245.85 12.208C245.85 11.6853 245.743 11.232 245.53 10.848C245.327 10.464 245.044 10.16 244.682 9.936C244.33 9.712 243.914 9.6 243.434 9.6C242.954 9.6 242.532 9.712 242.17 9.936C241.807 10.16 241.519 10.4693 241.306 10.864C241.103 11.248 241.002 11.6907 241.002 12.192C241.002 12.704 241.103 13.1573 241.306 13.552C241.519 13.936 241.807 14.24 242.17 14.464C242.543 14.688 242.97 14.8 243.45 14.8ZM247.21 16H245.754V13.952L246.026 12.096L245.754 10.256V4.576H247.21V16ZM252.538 16.16C251.845 16.16 251.215 15.9893 250.65 15.648C250.085 15.296 249.637 14.8213 249.306 14.224C248.986 13.6267 248.826 12.9547 248.826 12.208C248.826 11.4613 248.986 10.7893 249.306 10.192C249.637 9.59467 250.079 9.12 250.634 8.768C251.199 8.416 251.834 8.24 252.538 8.24C253.114 8.24 253.626 8.36267 254.074 8.608C254.533 8.84267 254.901 9.17333 255.178 9.6C255.455 10.016 255.61 10.5013 255.642 11.056V13.344C255.61 13.888 255.455 14.3733 255.178 14.8C254.911 15.2267 254.549 15.5627 254.09 15.808C253.642 16.0427 253.125 16.16 252.538 16.16ZM252.778 14.8C253.493 14.8 254.069 14.56 254.506 14.08C254.943 13.5893 255.162 12.9653 255.162 12.208C255.162 11.6853 255.061 11.232 254.858 10.848C254.666 10.4533 254.389 10.1493 254.026 9.936C253.663 9.712 253.242 9.6 252.762 9.6C252.282 9.6 251.855 9.712 251.482 9.936C251.119 10.16 250.831 10.4693 250.618 10.864C250.415 11.248 250.314 11.6907 250.314 12.192C250.314 12.704 250.415 13.1573 250.618 13.552C250.831 13.936 251.125 14.24 251.498 14.464C251.871 14.688 252.298 14.8 252.778 14.8ZM255.066 16V13.952L255.338 12.096L255.066 10.256V8.4H256.522V16H255.066ZM261.115 16.064L257.819 8.4H259.419L261.867 14.4H261.355L263.931 8.4H265.531L261.979 16.064H261.115ZM258.939 19.184L261.179 14.592L261.979 16.064L260.539 19.184H258.939ZM268.972 16.16C268.545 16.16 268.14 16.1067 267.756 16C267.383 15.8827 267.036 15.7227 266.716 15.52C266.396 15.3067 266.119 15.056 265.884 14.768L266.812 13.84C267.089 14.1813 267.409 14.4373 267.772 14.608C268.135 14.768 268.54 14.848 268.988 14.848C269.436 14.848 269.783 14.7733 270.028 14.624C270.273 14.464 270.396 14.2453 270.396 13.968C270.396 13.6907 270.295 13.4773 270.092 13.328C269.9 13.168 269.649 13.04 269.34 12.944C269.031 12.8373 268.7 12.736 268.348 12.64C268.007 12.5333 267.681 12.4 267.372 12.24C267.063 12.08 266.807 11.8613 266.604 11.584C266.412 11.3067 266.316 10.9387 266.316 10.48C266.316 10.0213 266.428 9.62667 266.652 9.296C266.876 8.95467 267.185 8.69333 267.58 8.512C267.985 8.33067 268.471 8.24 269.036 8.24C269.633 8.24 270.161 8.34667 270.62 8.56C271.089 8.76267 271.473 9.072 271.772 9.488L270.844 10.416C270.631 10.1387 270.364 9.92533 270.044 9.776C269.735 9.62667 269.383 9.552 268.988 9.552C268.572 9.552 268.252 9.62667 268.028 9.776C267.815 9.91467 267.708 10.112 267.708 10.368C267.708 10.624 267.804 10.8213 267.996 10.96C268.188 11.0987 268.439 11.216 268.748 11.312C269.068 11.408 269.399 11.5093 269.74 11.616C270.081 11.712 270.407 11.8453 270.716 12.016C271.025 12.1867 271.276 12.416 271.468 12.704C271.671 12.992 271.772 13.3707 271.772 13.84C271.772 14.5547 271.516 15.12 271.004 15.536C270.503 15.952 269.825 16.16 268.972 16.16ZM276.712 16V4.576H278.152V16H276.712ZM283.779 16.16C283.022 16.16 282.339 15.9893 281.731 15.648C281.123 15.296 280.643 14.8213 280.291 14.224C279.939 13.6267 279.763 12.9493 279.763 12.192C279.763 11.4453 279.934 10.7733 280.275 10.176C280.627 9.57867 281.096 9.10933 281.683 8.768C282.28 8.416 282.947 8.24 283.683 8.24C284.387 8.24 285.006 8.4 285.539 8.72C286.083 9.04 286.504 9.48267 286.803 10.048C287.112 10.6133 287.267 11.2533 287.267 11.968C287.267 12.0747 287.262 12.192 287.251 12.32C287.24 12.4373 287.219 12.576 287.187 12.736H280.771V11.536H286.419L285.891 12C285.891 11.488 285.8 11.056 285.619 10.704C285.438 10.3413 285.182 10.064 284.851 9.872C284.52 9.66933 284.12 9.568 283.651 9.568C283.16 9.568 282.728 9.67467 282.355 9.888C281.982 10.1013 281.694 10.4 281.491 10.784C281.288 11.168 281.187 11.6213 281.187 12.144C281.187 12.6773 281.294 13.1467 281.507 13.552C281.72 13.9467 282.024 14.256 282.419 14.48C282.814 14.6933 283.267 14.8 283.779 14.8C284.206 14.8 284.595 14.7253 284.947 14.576C285.31 14.4267 285.619 14.2027 285.875 13.904L286.803 14.848C286.44 15.2747 285.992 15.6 285.459 15.824C284.936 16.048 284.376 16.16 283.779 16.16ZM289.707 16V7.264C289.707 6.69867 289.829 6.208 290.075 5.792C290.32 5.36533 290.656 5.02933 291.083 4.784C291.52 4.53867 292.027 4.416 292.603 4.416C293.04 4.416 293.419 4.49067 293.739 4.64C294.059 4.78933 294.352 5.008 294.619 5.296L293.675 6.224C293.536 6.07467 293.381 5.96267 293.211 5.888C293.04 5.80267 292.832 5.76 292.587 5.76C292.128 5.76 291.771 5.89333 291.515 6.16C291.269 6.42667 291.147 6.79467 291.147 7.264V16H289.707ZM287.835 9.712V8.4H293.563V9.712H287.835ZM295.724 16V5.216H297.164V16H295.724ZM293.852 9.712V8.4H299.036V9.712H293.852Z" fill="#8BACD9"/>
<rect opacity="0.01" x="219.305" y="18.6739" width="16" height="16" transform="rotate(180 219.305 18.6739)" fill="black"/>
<path fill-rule="evenodd" clip-rule="evenodd" d="M204.638 10.6739C204.638 6.99199 207.623 4.00722 211.305 4.00722C213.073 4.00722 214.769 4.7096 216.019 5.95984C217.269 7.21008 217.972 8.90577 217.972 10.6739C217.972 14.3558 214.987 17.3406 211.305 17.3406C207.623 17.3406 204.638 14.3558 204.638 10.6739ZM211.305 11.3406H213.972C214.34 11.3406 214.638 11.0421 214.638 10.6739C214.638 10.3057 214.34 10.0072 213.972 10.0072H211.972V8.00722C211.972 7.63903 211.673 7.34055 211.305 7.34055C210.937 7.34055 210.638 7.63903 210.638 8.00722V10.6739C210.638 11.0421 210.937 11.3406 211.305 11.3406Z" fill="#8BACD9"/>
</svg>
